<?xml version="1.0" encoding="utf-8"?>
<!-- Generator: Adobe Illustrator 24.0.1, SVG Export Plug-In . SVG Version: 6.00 Build 0)  -->
<svg version="1.1" id="Calque_1" xmlns="http://www.w3.org/2000/svg" xmlns:xlink="http://www.w3.org/1999/xlink" x="0px" y="0px"
	 viewBox="0 0 48 48" style="enable-background:new 0 0 48 48;" xml:space="preserve">
<style type="text/css">
	.st0{fill:#FFFFFF;}
	.st1{font-family:'EdwardianScriptITC';}
	.st2{font-size:27.4949px;}
</style>
<g>
	<g>
		<path class="st0" d="M42.5,48.7c-11,0-22,0-32.9,0c0-17.8,0-35.6,0-53.4c11,0,22,0,32.9,0C42.5,13.1,42.5,30.9,42.5,48.7z
			 M22.8,1.4C22.7,1.4,22.7,1.3,22.8,1.4c-0.1,0.1-0.2,0.1-0.2,0.2c0,0.2-0.1,0.4-0.1,0.7c0,0.1,0,0.2,0,0.3c0,0.2,0,0.4,0,0.6
			c0,0.1,0.1,0.2,0.1,0.3c0.1,0.2,0.1,0.3,0.2,0.5c0,0.3,0,0.5,0,0.8c0,0.8,0.1,1.5,0.1,2.3c0,0.9,0.1,1.7,0.1,2.6
			c0,0.3,0,0.5,0,0.8c0,0.5,0,1,0,1.5c0,0.2,0,0.3-0.1,0.5c-0.1,0.2-0.2,0.5-0.4,0.7c-0.2,0.3-0.5,0.5-0.8,0.7
			c-0.6,0.6-1.1,1.2-1.4,1.9c-0.3,0.7-0.4,1.4-0.4,2.2c0,0.5,0.1,1,0.1,1.5c0.3,0,0.6,0,0.9,0c0.1,0,0.2-0.1,0.2-0.2
			c0-0.3,0-0.7-0.1-1c0-0.3-0.1-0.6,0-0.9c0.1-0.5,0.3-1,0.4-1.5c0.3-0.8,0.9-1.3,1.5-1.8c0.3-0.2,0.6-0.2,0.8,0
			c0.3,0.2,0.5,0.5,0.8,0.8c0.1,0.1,0.2,0.3,0.2,0.5c0,0.3-0.1,0.6-0.1,1c-0.1,0.5-0.1,1.1-0.1,1.6c0,0.5,0,0.9,0.1,1.4c0,0,0,0,0,0
			c0.8-0.1,1.6-0.1,2.4-0.2c0.5,0,1-0.1,1.4-0.1c0.9-0.1,1.8-0.1,2.7-0.2c0.2,0,0.4,0,0.7-0.1c0-0.3,0-0.6-0.1-0.9
			c-0.1-0.8-0.2-1.6-0.6-2.4c-0.2-0.5-0.5-0.9-0.9-1.3c-0.5-0.5-1.1-0.9-1.6-1.3c-0.4-0.3-0.7-0.7-0.8-1.2c-0.2-0.6-0.3-1.2-0.3-1.8
			c-0.1-0.6-0.1-1.3-0.1-1.9c0-0.3,0-0.5-0.1-0.8c-0.1-0.8-0.2-1.6-0.3-2.4c0-0.4-0.1-0.9-0.1-1.3c0-0.1,0-0.3,0.1-0.4
			C27.1,3,27.1,2.9,27,2.7c0-0.1,0-0.1,0-0.2c0-0.5-0.2-0.8-0.3-1.3c0-0.1-0.1-0.2-0.3-0.2c0,0.2-0.1,0.4-0.1,0.6
			c0.2,0,0.3,0.2,0.3,0.4c0,0.3,0.1,0.5,0.1,0.8c0,0.1-0.1,0.2-0.1,0.2c-0.2,0-0.3,0.1-0.5,0.1c-0.3,0-0.4-0.1-0.3-0.4
			c0-0.1,0-0.3,0-0.4c0-0.2-0.3-0.3-0.4-0.1c-0.1,0.2-0.1,0.3-0.1,0.5c0,0.2,0.1,0.3,0.2,0.5c-0.2,0-0.3,0.1-0.5,0.1
			c0.2,0,0.3,0.1,0.5,0.1c0,0.1-0.1,0.1-0.1,0.2c0.2,0.1,0.4,0.1,0.2,0.4c0,0,0,0.1,0,0.1c0,0.1,0,0.2,0,0.2c-0.1,0.4,0,0.8,0.1,1.2
			c0.2-0.1,0.2-0.2,0.2-0.5c0-0.4-0.1-0.8-0.1-1.1c0-0.2,0.2-0.5,0.4-0.5c0.1,0,0.3,0,0.3,0.2c0.1,0.6,0.2,1.3,0.2,1.9
			c0,0.3,0,0.6,0,0.9c0,0.6,0.1,1.3,0.1,1.9c0,0.2-0.1,0.2-0.2,0.2c-0.6,0-1.1,0.1-1.7,0.1c-0.1,0-0.2,0.1-0.2,0.2
			c0,0.3,0,0.6,0.1,0.9c0,0.3,0.1,0.7,0.1,1c0,0.2,0,0.4,0,0.7c0,0.1,0,0.1,0,0.2c-0.3,0.4-0.7,0.6-1.2,0.7
			c-0.2-1.2-0.2-2.4-0.2-3.6c-0.2-0.1-0.3-0.1-0.3-0.3c0-0.4,0-0.8,0-1.2c0-0.4,0-0.7-0.1-1.1C23,5.5,23,4.8,23,4
			c0-0.3,0.1-0.5,0.4-0.6c0.4-0.1,0.7-0.1,1.1-0.2c-0.4,0-0.9,0-1.3,0c-0.2,0-0.4,0-0.4-0.2c-0.1-0.5-0.2-1,0-1.6
			C22.8,1.5,22.8,1.4,22.8,1.4z M25.3,41c0.2,0.1,0.3,0.2,0.2,0.4c-0.2,0.6,0,1.2,0.2,1.8c0,0.2,0,0.3-0.1,0.3
			c-0.2,0.1-0.4,0.2-0.6,0.2c-0.1,0-0.2,0.1-0.2,0.2c-0.1,0.2-0.2,0.3-0.4,0.3c-0.3,0-0.5,0-0.8,0c-0.1,0-0.2-0.1-0.2-0.2
			c-0.2-0.6-0.3-1.2-0.4-1.9c0-0.3,0-0.6-0.1-0.9c0-0.1-0.1-0.2-0.2-0.2c-0.3,0-0.6-0.1-0.9-0.1c0,0.3,0.1,0.7,0.1,1.1
			c0.1,0.7,0.1,1.5,0.2,2.2c0,0.3,0.2,0.6,0.5,0.8c0.3,0.2,0.7,0.2,1,0.3c0.3,0.1,0.5,0.1,0.8,0.1c0.3,0,0.6,0,0.9,0
			c0.6,0,1.3,0,1.9,0c0.8,0,1.7-0.1,2.5-0.2c0.4,0,0.8,0,1.2-0.1c0.5-0.1,1-0.3,1.5-0.5c0.3-0.1,0.5-0.5,0.5-0.9
			c0-0.9-0.1-1.9-0.1-2.8c0-0.2,0-0.4,0-0.6c-0.4,0.1-0.9,0.2-1.3,0.3c-0.4,0.1-0.9,0.2-1.3,0.2c-1,0.1-2,0.2-3,0.3
			C26.6,40.9,25.9,40.9,25.3,41z M24.8,6c0.1,0.3,0.8,0.6,1,0.5c0.1,0,0.1-0.2,0.1-0.3c-0.1,0-0.1-0.1-0.2-0.1
			c-0.2,0-0.5-0.1-0.7-0.1C25,6,24.9,6,24.8,6z M25.8,7.2C25.8,7.2,25.7,7.2,25.8,7.2c-0.1,0.3-0.1,0.5-0.1,0.8
			c-0.1,0-0.2-0.1-0.3-0.1c0.1-0.1,0.2-0.2,0.2-0.3c-0.1,0-0.1,0-0.2,0c0-0.1,0-0.1,0-0.2c0,0,0,0-0.1,0c0,0.2,0,0.4,0,0.6
			c0.2,0,0.5,0,0.7,0C25.9,7.7,25.8,7.4,25.8,7.2z M26.8,32.1C26.7,32.1,26.7,32.1,26.8,32.1c-0.1,0.2,0,0.3,0,0.5c0,0,0.1,0,0.1,0
			C26.8,32.4,26.8,32.2,26.8,32.1z"/>
		<path d="M22.8,1.4c0,0.1,0,0.1,0,0.2c-0.1,0.5,0,1,0,1.6c0,0.2,0.2,0.2,0.4,0.2c0.4,0,0.9-0.1,1.3,0c-0.4,0.1-0.7,0.1-1.1,0.2
			C23.1,3.6,23,3.7,23,4c0,0.7,0.1,1.5,0.1,2.2c0,0.4,0,0.7,0.1,1.1c0,0.4,0,0.8,0,1.2c0,0.2,0,0.3,0.3,0.3c0.1,1.2,0,2.4,0.2,3.6
			c0.5-0.1,0.9-0.3,1.2-0.7c0,0,0-0.1,0-0.2c0-0.2,0-0.4,0-0.7c0-0.3-0.1-0.7-0.1-1c0-0.3,0-0.6-0.1-0.9c0-0.2,0.1-0.2,0.2-0.2
			c0.6,0,1.1-0.1,1.7-0.1c0.2,0,0.2-0.1,0.2-0.2c0-0.6-0.1-1.3-0.1-1.9c0-0.3,0-0.6,0-0.9c-0.1-0.6-0.2-1.3-0.2-1.9
			c0-0.2-0.2-0.2-0.3-0.2c-0.2,0-0.5,0.3-0.4,0.5c0,0.4,0.1,0.8,0.1,1.1c0,0.3,0,0.4-0.2,0.5c-0.2-0.4-0.2-0.8-0.1-1.2
			c0-0.1,0-0.2,0-0.2c0-0.1,0-0.1,0-0.1c0.2-0.2,0-0.3-0.2-0.4c0-0.1,0.1-0.1,0.1-0.2c-0.2,0-0.3-0.1-0.5-0.1c0.2,0,0.4-0.1,0.5-0.1
			c-0.1-0.2-0.2-0.3-0.2-0.5c0-0.2,0-0.4,0.1-0.5c0.1-0.1,0.3-0.1,0.4,0.1c0,0.1,0,0.3,0,0.4c0,0.3,0.1,0.4,0.3,0.4
			c0.2,0,0.3,0,0.5-0.1c0,0,0.1-0.1,0.1-0.2c0-0.3,0-0.5-0.1-0.8c0-0.2-0.1-0.3-0.3-0.4c0-0.2,0.1-0.4,0.1-0.6
			c0.2,0,0.3,0.1,0.3,0.2C26.8,1.7,27,2,27,2.5c0,0.1,0,0.1,0,0.2c0,0.2,0.1,0.3-0.1,0.5c-0.1,0.1-0.1,0.2-0.1,0.4
			C26.9,4,27,4.4,27,4.9c0.1,0.8,0.2,1.6,0.3,2.4c0,0.3,0,0.5,0.1,0.8c0,0.6,0,1.3,0.1,1.9c0.1,0.6,0.2,1.2,0.3,1.8
			c0.1,0.5,0.4,0.9,0.8,1.2c0.5,0.4,1.1,0.8,1.6,1.3c0.4,0.3,0.7,0.8,0.9,1.3c0.4,0.7,0.5,1.6,0.6,2.4c0,0.3,0,0.6,0.1,0.9
			c-0.3,0-0.5,0.1-0.7,0.1c-0.9,0.1-1.8,0.1-2.7,0.2c-0.5,0-1,0.1-1.4,0.1c-0.8,0.1-1.6,0.1-2.4,0.2c0,0,0,0,0,0
			c0-0.5-0.1-0.9-0.1-1.4c0-0.5,0.1-1.1,0.1-1.6c0-0.3,0.1-0.6,0.1-1c0-0.2-0.1-0.3-0.2-0.5c-0.2-0.3-0.5-0.6-0.8-0.8
			c-0.3-0.2-0.6-0.1-0.8,0c-0.7,0.5-1.3,1-1.5,1.8c-0.2,0.5-0.3,1-0.4,1.5c-0.1,0.3,0,0.6,0,0.9c0,0.3,0.1,0.7,0.1,1
			c0,0.1-0.1,0.2-0.2,0.2c-0.3,0-0.6,0-0.9,0c0-0.5-0.1-1-0.1-1.5c0-0.8,0.1-1.5,0.4-2.2c0.3-0.8,0.9-1.4,1.4-1.9
			c0.3-0.3,0.6-0.5,0.8-0.7c0.2-0.2,0.3-0.5,0.4-0.7C23,12.2,23,12,23,11.9c0-0.5,0-1,0-1.5c0-0.3,0-0.5,0-0.8
			c0-0.9-0.1-1.7-0.1-2.6c0-0.8-0.1-1.5-0.1-2.3c0-0.3,0-0.5,0-0.8c0-0.2-0.1-0.3-0.2-0.5c0-0.1-0.1-0.2-0.1-0.3c0-0.2,0-0.4,0-0.6
			c0-0.1,0-0.2,0-0.3c0-0.2,0.1-0.4,0.1-0.7C22.6,1.5,22.6,1.4,22.8,1.4C22.7,1.3,22.7,1.4,22.8,1.4z"/>
		<path d="M25.3,41c0.6,0,1.3-0.1,1.9-0.1c1-0.1,2-0.2,3-0.3c0.4,0,0.9-0.1,1.3-0.2c0.4-0.1,0.8-0.2,1.3-0.3c0,0.2,0,0.4,0,0.6
			c0,0.9,0,1.9,0.1,2.8c0,0.4-0.2,0.8-0.5,0.9c-0.5,0.2-1,0.4-1.5,0.5C30.6,45,30.2,45,29.8,45c-0.8,0.1-1.7,0.2-2.5,0.2
			c-0.6,0-1.3,0-1.9,0c-0.3,0-0.6,0-0.9,0c-0.3,0-0.6,0-0.8-0.1c-0.3-0.1-0.7-0.1-1-0.3c-0.3-0.2-0.4-0.5-0.5-0.8
			c-0.1-0.7-0.1-1.5-0.2-2.2c0-0.4-0.1-0.7-0.1-1.1c0.3,0,0.6,0.1,0.9,0.1c0.1,0,0.2,0.1,0.2,0.2c0,0.3,0,0.6,0.1,0.9
			c0,0.6,0.1,1.3,0.4,1.9c0,0.1,0.1,0.2,0.2,0.2c0.3,0,0.5,0,0.8,0c0.2,0,0.3-0.1,0.4-0.3c0-0.1,0.1-0.1,0.2-0.2
			c0.2-0.1,0.4-0.2,0.6-0.2c0.2-0.1,0.2-0.2,0.1-0.3c-0.2-0.6-0.4-1.2-0.2-1.8C25.6,41.2,25.5,41,25.3,41z"/>
		<path d="M24.8,6c0.1,0,0.2,0,0.3,0c0.2,0,0.5,0.1,0.7,0.1c0.1,0,0.1,0.1,0.2,0.1c0,0.1-0.1,0.2-0.1,0.3C25.6,6.7,24.9,6.3,24.8,6z
			"/>
		<path d="M25.8,7.2C25.8,7.4,25.9,7.7,26,8c-0.2,0-0.4,0-0.7,0c0-0.2,0-0.4,0-0.6c0,0,0,0,0.1,0c0,0.1,0,0.1,0,0.2
			c0.1,0,0.1,0,0.2,0c-0.1,0.1-0.2,0.2-0.2,0.3c0.1,0,0.2,0,0.3,0.1C25.7,7.7,25.7,7.4,25.8,7.2C25.7,7.2,25.8,7.2,25.8,7.2z"/>
		<path d="M26.8,32.1c0,0.2,0,0.3,0.1,0.5c0,0-0.1,0-0.1,0C26.7,32.4,26.7,32.2,26.8,32.1C26.7,32.1,26.7,32.1,26.8,32.1z"/>
	</g>
</g>
<text transform="matrix(0.7987 -7.273635e-03 9.106464e-03 1 -1.0799 37.3063)" class="st1 st2">Elixir</text>
</svg>
